<svg xmlns="http://www.w3.org/2000/svg" xmlns:xlink="http://www.w3.org/1999/xlink" version="1.1" width="256" height="256" viewBox="0 0 256 256" xml:space="preserve">

<defs>
</defs>
<g style="stroke: none; stroke-width: 0; stroke-dasharray: none; stroke-linecap: butt; stroke-linejoin: miter; stroke-miterlimit: 10; fill: none; fill-rule: nonzero; opacity: 1;" transform="translate(1.4065934065934016 1.4065934065934016) scale(2.81 2.81)" >
	<circle cx="45" cy="45" r="45" style="stroke: none; stroke-width: 1; stroke-dasharray: none; stroke-linecap: butt; stroke-linejoin: miter; stroke-miterlimit: 10; fill: rgb(239,76,38); fill-rule: nonzero; opacity: 1;" transform="  matrix(1 0 0 1 0 0) "/>
	<path d="M 82.583 20.258 C 84.779 25.758 86 31.752 86 38.035 C 86 64.525 64.525 86 38.035 86 c -6.283 0 -12.277 -1.221 -17.777 -3.417 C 27.358 87.266 35.858 90 45 90 c 24.853 0 45 -20.147 45 -45 C 90 35.858 87.266 27.358 82.583 20.258 z" style="stroke: none; stroke-width: 1; stroke-dasharray: none; stroke-linecap: butt; stroke-linejoin: miter; stroke-miterlimit: 10; fill: rgb(228,71,34); fill-rule: nonzero; opacity: 1;" transform=" matrix(1 0 0 1 0 0) " stroke-linecap="round" />
	<path d="M 63.087 69.345 c -0.647 0 -1.283 -0.313 -1.668 -0.894 c -3.671 -5.529 -9.809 -8.83 -16.419 -8.83 s -12.749 3.301 -16.418 8.83 c -0.611 0.92 -1.852 1.173 -2.772 0.56 c -0.92 -0.61 -1.171 -1.852 -0.561 -2.772 C 29.662 59.59 37.046 55.621 45 55.621 s 15.338 3.969 19.751 10.617 c 0.611 0.921 0.36 2.162 -0.56 2.772 C 63.851 69.237 63.467 69.345 63.087 69.345 z" style="stroke: none; stroke-width: 1; stroke-dasharray: none; stroke-linecap: butt; stroke-linejoin: miter; stroke-miterlimit: 10; fill: rgb(96,67,35); fill-rule: nonzero; opacity: 1;" transform=" matrix(1 0 0 1 0 0) " stroke-linecap="round" />
	<path d="M 25.238 42.268 c -0.68 0 -1.343 -0.347 -1.718 -0.973 c -0.567 -0.948 -0.259 -2.176 0.688 -2.743 l 7.424 -4.444 l -7.424 -4.444 c -0.948 -0.567 -1.256 -1.795 -0.688 -2.743 c 0.566 -0.948 1.794 -1.258 2.743 -0.688 l 10.291 6.16 c 0.604 0.361 0.973 1.013 0.973 1.716 s -0.369 1.355 -0.973 1.716 l -10.291 6.16 C 25.941 42.176 25.587 42.268 25.238 42.268 z" style="stroke: none; stroke-width: 1; stroke-dasharray: none; stroke-linecap: butt; stroke-linejoin: miter; stroke-miterlimit: 10; fill: rgb(96,67,35); fill-rule: nonzero; opacity: 1;" transform=" matrix(1 0 0 1 0 0) " stroke-linecap="round" />
	<path d="M 64.762 42.268 c -0.35 0 -0.703 -0.092 -1.025 -0.285 l -10.29 -6.16 c -0.604 -0.361 -0.973 -1.013 -0.973 -1.716 s 0.369 -1.355 0.973 -1.716 l 10.29 -6.16 c 0.95 -0.567 2.176 -0.259 2.743 0.688 c 0.567 0.948 0.259 2.176 -0.688 2.743 l -7.424 4.444 l 7.424 4.444 c 0.947 0.567 1.256 1.795 0.688 2.743 C 66.105 41.92 65.442 42.268 64.762 42.268 z" style="stroke: none; stroke-width: 1; stroke-dasharray: none; stroke-linecap: butt; stroke-linejoin: miter; stroke-miterlimit: 10; fill: rgb(96,67,35); fill-rule: nonzero; opacity: 1;" transform=" matrix(1 0 0 1 0 0) " stroke-linecap="round" />
</g>
</svg>