<svg xmlns="http://www.w3.org/2000/svg" xmlns:xlink="http://www.w3.org/1999/xlink" version="1.1" width="256" height="256" viewBox="0 0 256 256" xml:space="preserve">

<defs>
</defs>
<g style="stroke: none; stroke-width: 0; stroke-dasharray: none; stroke-linecap: butt; stroke-linejoin: miter; stroke-miterlimit: 10; fill: none; fill-rule: nonzero; opacity: 1;" transform="translate(1.4065934065934016 1.4065934065934016) scale(2.81 2.81)" >
	<circle cx="45" cy="45" r="45" style="stroke: none; stroke-width: 1; stroke-dasharray: none; stroke-linecap: butt; stroke-linejoin: miter; stroke-miterlimit: 10; fill: rgb(255,202,40); fill-rule: nonzero; opacity: 1;" transform="  matrix(1 0 0 1 0 0) "/>
	<path d="M 82.583 20.258 C 84.779 25.758 86 31.752 86 38.035 C 86 64.525 64.525 86 38.035 86 c -6.283 0 -12.277 -1.221 -17.777 -3.417 C 27.358 87.266 35.858 90 45 90 c 24.853 0 45 -20.147 45 -45 C 90 35.858 87.266 27.358 82.583 20.258 z" style="stroke: none; stroke-width: 1; stroke-dasharray: none; stroke-linecap: butt; stroke-linejoin: miter; stroke-miterlimit: 10; fill: rgb(231,182,34); fill-rule: nonzero; opacity: 1;" transform=" matrix(1 0 0 1 0 0) " stroke-linecap="round" />
	<path d="M 63.087 73.345 c -0.647 0 -1.283 -0.313 -1.668 -0.894 c -3.671 -5.529 -9.809 -8.83 -16.419 -8.83 s -12.749 3.301 -16.418 8.83 c -0.611 0.92 -1.852 1.172 -2.772 0.56 c -0.92 -0.61 -1.171 -1.852 -0.561 -2.772 C 29.662 63.59 37.046 59.621 45 59.621 s 15.338 3.969 19.751 10.617 c 0.611 0.921 0.36 2.162 -0.56 2.772 C 63.851 73.237 63.467 73.345 63.087 73.345 z" style="stroke: none; stroke-width: 1; stroke-dasharray: none; stroke-linecap: butt; stroke-linejoin: miter; stroke-miterlimit: 10; fill: rgb(96,67,35); fill-rule: nonzero; opacity: 1;" transform=" matrix(1 0 0 1 0 0) " stroke-linecap="round" />
	<path d="M 23.787 39.081 c -0.215 0 -0.433 -0.035 -0.648 -0.108 c -1.045 -0.358 -1.602 -1.495 -1.244 -2.54 c 1.274 -3.722 4.311 -6.487 8.122 -7.399 c 3.813 -0.909 7.771 0.183 10.59 2.926 c 0.792 0.771 0.809 2.037 0.039 2.828 c -0.771 0.792 -2.037 0.808 -2.828 0.039 c -1.832 -1.782 -4.402 -2.493 -6.871 -1.902 c -2.471 0.591 -4.44 2.387 -5.268 4.804 C 25.395 38.559 24.619 39.081 23.787 39.081 z" style="stroke: none; stroke-width: 1; stroke-dasharray: none; stroke-linecap: butt; stroke-linejoin: miter; stroke-miterlimit: 10; fill: rgb(96,67,35); fill-rule: nonzero; opacity: 1;" transform=" matrix(1 0 0 1 0 0) " stroke-linecap="round" />
	<path d="M 66.213 39.081 c -0.831 0 -1.607 -0.522 -1.893 -1.353 c -0.827 -2.417 -2.797 -4.213 -5.268 -4.804 c -2.472 -0.589 -5.04 0.121 -6.871 1.902 c -0.791 0.77 -2.057 0.754 -2.828 -0.039 c -0.771 -0.792 -0.753 -2.058 0.039 -2.828 c 2.818 -2.743 6.775 -3.837 10.59 -2.926 c 3.812 0.912 6.848 3.677 8.123 7.399 c 0.357 1.045 -0.199 2.182 -1.244 2.54 C 66.646 39.046 66.428 39.081 66.213 39.081 z" style="stroke: none; stroke-width: 1; stroke-dasharray: none; stroke-linecap: butt; stroke-linejoin: miter; stroke-miterlimit: 10; fill: rgb(96,67,35); fill-rule: nonzero; opacity: 1;" transform=" matrix(1 0 0 1 0 0) " stroke-linecap="round" />
	<path d="M 65.854 60.782 c -3.261 0 -5.914 -2.653 -5.914 -5.914 c 0 -4.151 3.329 -7.989 5.532 -10.529 l 0.241 -0.277 c 0.071 -0.082 0.211 -0.082 0.282 0 l 0.24 0.277 c 2.203 2.54 5.532 6.378 5.532 10.529 C 71.768 58.129 69.115 60.782 65.854 60.782 z" style="stroke: none; stroke-width: 1; stroke-dasharray: none; stroke-linecap: butt; stroke-linejoin: miter; stroke-miterlimit: 10; fill: rgb(37,157,204); fill-rule: nonzero; opacity: 1;" transform=" matrix(1 0 0 1 0 0) " stroke-linecap="round" />
</g>
</svg>